<svg width="56" height="94" viewBox="0 0 56 94" fill="none" xmlns="http://www.w3.org/2000/svg">
<path fill-rule="evenodd" clip-rule="evenodd" d="M28.0008 94C27.1728 94 26.3957 93.5893 25.9212 92.9008C21.7027 86.7806 2.75248 59.2898 0.604007 56.1741C-0.201041 55.0068 -0.201356 53.7208 0.603185 52.5533L7.3704 42.7364C14.5665 32.2967 25.6424 16.2292 25.9386 15.8003C26.4049 15.1238 27.1735 14.7198 27.9943 14.7198C28.8193 14.7198 29.5938 15.1267 30.0662 15.8085C30.4085 16.3027 54.7942 51.6752 55.3987 52.5549C56.2011 53.7229 56.2005 55.0081 55.3965 56.1734L54.4378 57.5636C36.8548 83.0667 31.4869 90.8568 30.0798 92.9008C29.6065 93.5893 28.8292 94 28.0008 94Z" fill="#176FC1"/>
<path fill-rule="evenodd" clip-rule="evenodd" d="M54.2957 55.3965C53.8403 56.0561 32.4333 87.1043 28.9781 92.1252C28.5047 92.8129 27.4994 92.8162 27.0226 92.1243C23.7082 87.316 3.95311 58.6571 1.70489 55.3971C1.22979 54.7082 1.22871 54.0207 1.70477 53.3301C3.16634 51.21 26.6045 17.2084 27.0394 16.5776C27.5018 15.9073 28.4984 15.9127 28.9667 16.5884C29.4349 17.2641 53.8074 52.6189 54.2965 53.3304C54.7715 54.0217 54.7702 54.7087 54.2957 55.3965Z" fill="white"/>
<path fill-rule="evenodd" clip-rule="evenodd" d="M28.2533 90.4828C28.1142 90.6851 27.8864 90.6851 27.7469 90.4828L3.0988 54.7272C2.95958 54.5251 2.95958 54.1946 3.0988 53.9927L27.7469 18.2373C27.8864 18.0353 28.1142 18.0353 28.2533 18.2373L52.9014 53.9927C53.0406 54.1946 53.0406 54.5251 52.9014 54.7272L28.2533 90.4828Z" fill="#1D4692"/>
<path fill-rule="evenodd" clip-rule="evenodd" d="M28.0954 89.364C28.0431 89.4399 27.9577 89.4399 27.9054 89.364L3.87019 54.4976C3.81785 54.4219 3.81785 54.2978 3.87019 54.2219L27.9054 19.3558C27.9577 19.2801 28.0431 19.2801 28.0954 19.3558L52.1302 54.2219C52.1825 54.2978 52.1825 54.4219 52.1302 54.4976L28.0954 89.364Z" fill="#176FC1"/>
<path fill-rule="evenodd" clip-rule="evenodd" d="M36.5101 63.2146C34.3199 65.8814 30.9369 67.1568 27.4788 66.5258C30.7459 63.5614 33.0637 57.2534 33.14 51.9357C32.9189 51.722 32.4354 51.4137 32.4354 51.4137C32.4354 51.4137 32.3924 51.6892 32.2355 51.6237C30.9698 51.0968 29.5117 50.1071 28.5324 48.4665C28.2343 47.9675 27.9552 47.3675 27.7172 46.702C29.6437 45.4711 31.2293 43.8223 32.3158 42.024C35.3213 43.4103 37.5243 46.066 38.5742 49.1548C40.3808 54.4708 39.2096 59.9275 36.5101 63.2146ZM20.1696 67.7736C19.2438 67.711 18.4108 67.2403 18.3164 66.6028C18.2276 66.0012 18.7031 65.6322 19.3234 65.6436C20.2307 65.661 21.6539 66.6971 22.7792 67.2428C21.9949 67.6646 20.9395 67.8257 20.1696 67.7736ZM27.0615 41.0085C27.4404 40.9929 27.8279 40.9937 28.2257 41.0157C28.8734 41.0514 29.4997 41.1397 30.1028 41.2749C29.3806 42.4814 28.4404 43.6309 27.1583 44.591C26.9516 43.4306 26.8925 42.1961 27.0615 41.0085ZM30.8841 36.0699C31.6871 36.2643 31.7777 37.4762 31.1838 38.9519C30.8668 38.9139 30.5471 38.8821 30.2251 38.8585C29.3325 38.7933 28.4673 38.7794 27.6294 38.8111C28.5074 36.5781 29.9662 35.8485 30.8841 36.0699ZM45.4017 53.102C45.1923 46.0335 40.2182 41.0581 33.6351 39.4036C33.9311 38.6597 34.1968 37.877 34.3319 37.2082C34.7982 34.901 33.9766 33.4113 32.3832 33.1301C29.8791 32.6874 26.6821 34.9408 25.418 39.0085C19.0848 39.9145 14.693 43.5883 13.1505 47.8398C11.6306 52.028 13.1487 55.5684 15.8274 56.6359C18.568 57.728 21.1108 56.2392 21.8589 54.316C21.7123 54.2079 21.1526 53.7911 21.1526 53.7911C21.1526 53.7911 20.9464 54.0389 20.76 53.9434C19.2059 53.1463 18.0663 51.2864 18.2647 48.6653C18.517 45.3316 21.0104 42.2567 24.9411 41.3025C24.7514 42.8359 24.7454 44.3798 24.8429 45.9249C24.2816 46.1679 23.6756 46.3828 23.0184 46.5627C22.9111 47.1987 22.251 48.199 22.251 48.199L22.9701 48.6345C23.6804 48.4921 24.3699 48.2925 25.0342 48.0443C25.4718 51.8832 26.3275 55.7038 26.385 59.3628C26.4204 61.6145 26.0433 64.16 24.7849 65.703C22.7494 64.848 21.2923 63.7457 19.8252 63.4886C17.7619 63.1269 16.0724 64.4676 16.3041 66.4527C16.4734 67.905 18.1126 69.2239 20.2583 69.3632C21.9487 69.4729 23.7731 68.9108 25.0153 68.1881C26.2806 68.6912 27.886 69.2038 29.4692 69.2975C39.3876 69.8857 45.6567 61.7102 45.4017 53.102Z" fill="#1D4692"/>
<path fill-rule="evenodd" clip-rule="evenodd" d="M35.8065 62.6922C33.6163 65.3594 30.2336 66.6345 26.7753 66.0034C30.0421 63.0393 32.3601 56.7311 32.4364 51.4135C31.0269 51.0295 29.0536 49.9961 27.8288 47.9443C27.531 47.4453 27.2519 46.8453 27.0136 46.1798C28.9402 44.949 30.526 43.3001 31.6122 41.502C34.6177 42.8881 36.821 45.5439 37.8706 48.6326C39.6772 53.9485 38.506 59.4054 35.8065 62.6922ZM19.4662 67.2515C18.5402 67.1889 17.7076 66.7181 17.6131 66.0805C17.524 65.479 17.9995 65.11 18.6199 65.1216C19.5274 65.1388 20.9503 66.1748 22.0756 66.7204C21.2916 67.1426 20.2362 67.3035 19.4662 67.2515ZM26.3579 40.4862C26.7369 40.4708 27.1244 40.4716 27.5224 40.4934C28.1693 40.5292 28.7948 40.6173 29.3972 40.752C28.6742 41.9526 27.733 43.0891 26.4494 44.0387C26.2471 42.8869 26.1905 41.6636 26.3579 40.4862ZM30.2017 35.5139C31.024 35.728 31.2098 36.9244 30.5722 38.441C30.2252 38.3974 29.8748 38.362 29.5215 38.3363C28.6294 38.2712 27.764 38.2573 26.9263 38.2889C27.8108 36.0387 29.2871 35.2753 30.2017 35.5139ZM44.6981 52.5798C44.489 45.5126 39.5162 40.5379 32.9351 38.8823C33.2361 38.1132 33.4805 37.3145 33.598 36.6075C33.9953 34.2188 33.2733 32.8892 31.6796 32.6077C29.1758 32.1654 25.9785 34.4187 24.7147 38.4862C18.3813 39.3925 13.9898 43.0662 12.4471 47.3178C10.927 51.5057 12.4451 55.0462 15.1241 56.1141C17.8644 57.206 20.4076 55.7171 21.1555 53.7938C19.0816 53.421 17.3185 51.3527 17.5613 48.1431C17.8134 44.8096 20.307 41.7347 24.2376 40.7801C24.0497 42.2983 24.0424 43.8266 24.1367 45.3559C23.5761 45.5968 22.9712 45.8101 22.3149 45.9895C22.1343 47.0613 22.2666 48.1123 22.2666 48.1123C22.9768 47.9697 23.6663 47.7702 24.331 47.522C24.7685 51.361 25.6239 55.1812 25.6814 58.8405C25.717 61.0924 25.3397 63.638 24.0815 65.1809C22.046 64.3258 20.5888 63.2237 19.1218 62.9664C17.0584 62.6049 15.369 63.9456 15.6006 65.9305C15.7699 67.3828 17.4092 68.7017 19.5548 68.841C21.2452 68.9507 23.0697 68.3885 24.3117 67.6658C25.577 68.1689 27.1824 68.6814 28.7659 68.7753C38.684 69.3635 44.9536 61.1881 44.6981 52.5798Z" fill="white"/>
<path d="M24.9681 77.5835L24.4547 77.1923L23.7996 75.5088L23.0985 76.36V77.5835H22.4675L21.9556 77.1923L22.4675 76.9373V73.3754L22.5856 72.9842L23.0985 73.3754V75.2872L24.8678 73.1069L25.057 72.9842L25.5699 73.3754L24.2203 75.0243L25.71 77.5835H24.9681Z" fill="#1D4692"/>
<path d="M28.7597 77.5835L28.2475 77.1928L28.7597 74.5278L26.8961 77.5835H26.3235L25.8104 77.1923L26.3235 73.3754L26.4419 72.9863L26.9544 73.3754V76.2059L28.8775 72.9857L29.3907 73.3754V77.5835H28.7597Z" fill="#1D4692"/>
<path d="M31.2954 72.7811L30.7861 72.3898L31.3552 71.7474L31.8671 72.1428V72.7811H31.2954ZM30.6355 77.5835L30.1224 77.1989L30.751 72.9857L31.2663 73.3754V77.5835H30.6355ZM29.9965 72.7811L29.4885 72.3903L30.0566 71.753L30.5711 72.1428V72.7811H29.9965Z" fill="#1D4692"/>
<path d="M34.0531 75.7275H33.0657V77.0102H34.0531C34.4736 77.0102 34.7365 76.762 34.7365 76.366C34.7365 75.9758 34.4736 75.7275 34.0531 75.7275ZM34.0003 73.9486H33.0657V75.0338H34.0003C34.4211 75.0338 34.5237 74.9296 34.5237 74.5515C34.5237 74.1733 34.4211 73.9486 34.0003 73.9486ZM34.1174 77.5835H32.4347L31.9215 77.1933L32.4347 73.3754L34.3962 73.2493C34.3962 73.2493 34.7467 73.4876 34.9659 73.6856C35.1849 73.8836 35.3092 74.1672 35.3092 74.5102C35.3092 74.9357 35.1166 75.2429 34.7482 75.4262C35.1574 75.6213 35.3735 75.9226 35.3735 76.4014C35.3735 77.1282 34.8945 77.5835 34.1174 77.5835Z" fill="#1D4692"/>
<path d="M24.4548 77.1924L23.2863 75.1181L22.5853 75.969V77.1924H21.9543V72.9843H22.5853V75.1001L24.2853 72.9843H25.0566L23.707 74.6334L25.1967 77.1924H24.4548Z" fill="white"/>
<path d="M28.2466 77.1924V74.1368L26.383 77.1924H25.8103V72.9843H26.4413V76.0341L28.2991 72.9843H28.8775V77.1924H28.2466Z" fill="white"/>
<path d="M30.7821 72.3902V71.7519H31.3523V72.3902H30.7821ZM30.1219 77.1924V72.9843H30.7529V77.1924H30.1219ZM29.488 72.3902V71.7519H30.0578V72.3902H29.488Z" fill="white"/>
<path d="M33.54 75.3366H32.5528V76.6191H33.54C33.9607 76.6191 34.2237 76.371 34.2237 75.9749C34.2237 75.5847 33.9607 75.3366 33.54 75.3366ZM33.4874 73.5575H32.5528V74.7634H33.4874C33.9082 74.7634 34.1652 74.5385 34.1652 74.1606C34.1652 73.7824 33.9082 73.5575 33.4874 73.5575ZM33.6042 77.1924H31.9215V72.9843H33.54C34.2993 72.9843 34.796 73.4336 34.796 74.1191C34.796 74.5449 34.603 74.8522 34.2352 75.0351C34.6442 75.2302 34.8603 75.5316 34.8603 76.0103C34.8603 76.7371 34.3813 77.1924 33.6042 77.1924Z" fill="white"/>
<path d="M26.0029 4.70825C25.849 4.70825 23.3887 4.70825 21.3438 4.70825C20.6965 2.67957 19.9682 0.393601 19.9171 0.228246C19.8241 -0.0734587 19.4496 -0.0782118 19.3555 0.22759C19.31 0.376229 18.5497 2.74119 17.9174 4.70825C15.8726 4.70825 13.4123 4.70825 13.2583 4.70825C12.944 4.70825 12.8374 5.06649 13.0855 5.24856C13.2085 5.33886 15.1983 6.79904 16.8554 8.0147C16.2241 9.97996 15.467 12.3371 15.4196 12.4849C15.3227 12.7871 15.6264 13.0003 15.8742 12.818C15.9969 12.7281 17.9751 11.2713 19.6276 10.0545C21.2811 11.2722 23.264 12.7323 23.3868 12.8225C23.6348 13.0049 23.9385 12.7915 23.8415 12.4893C23.794 12.3415 23.0359 9.98144 22.4047 8.01553C24.0616 6.79986 26.0527 5.33886 26.1755 5.24856C26.4239 5.06649 26.317 4.70825 26.0029 4.70825Z" fill="#E4AC21"/>
<path d="M17.7246 7.72737L14.6289 5.4568L13.0856 5.24851L16.8555 8.01465L17.7246 7.72737Z" fill="#BF851E"/>
<path d="M20.8052 5.45654L21.344 4.7081L19.9173 0.228096L19.6348 1.78382L20.8052 5.45654Z" fill="#BF851E"/>
<path d="M16.5468 11.3969L15.8744 12.8179L19.6278 10.0544L19.6282 9.12909L16.5468 11.3969Z" fill="#BF851E"/>
<path d="M26.2949 4.89444C26.2212 4.92033 25.0799 5.30546 24.6316 5.45655H24.6323L21.5354 7.72827L22.7146 11.4008C23.087 11.9205 23.7387 12.8308 23.7434 12.8374C23.8383 12.7691 23.89 12.6403 23.8416 12.4892C23.7941 12.3413 23.036 9.9813 22.4048 8.01539C24.0617 6.79972 26.0528 5.33872 26.1756 5.24842C26.3057 5.15321 26.3383 5.00965 26.2949 4.89444Z" fill="#BF851E"/>
<path d="M42.7414 4.70825C42.5877 4.70825 40.1274 4.70825 38.0825 4.70825C37.435 2.67957 36.7067 0.393601 36.6562 0.228246C36.5632 -0.0734587 36.1882 -0.0782118 36.0942 0.22759C36.0487 0.376229 35.2886 2.74119 34.6565 4.70825C32.6113 4.70825 30.151 4.70825 29.997 4.70825C29.6827 4.70825 29.5761 5.06649 29.8244 5.24856C29.9472 5.33886 31.9374 6.79904 33.5943 8.0147C32.9628 9.97996 32.2056 12.3371 32.1585 12.4849C32.0615 12.7871 32.3652 13.0003 32.6129 12.818C32.7357 12.7281 34.7138 11.2713 36.3663 10.0545C38.0198 11.2722 40.0027 12.7323 40.1258 12.8225C40.3735 13.0049 40.6772 12.7915 40.58 12.4893C40.5327 12.3415 39.7746 9.98144 39.1433 8.01553C40.8004 6.79986 42.7915 5.33886 42.9142 5.24856C43.1623 5.06649 43.0557 4.70825 42.7414 4.70825Z" fill="#E4AC21"/>
<path d="M34.4632 7.72737L31.3675 5.4568L29.8245 5.24851L33.5943 8.01465L34.4632 7.72737Z" fill="#BF851E"/>
<path d="M37.5436 5.45654L38.0825 4.7081L36.6561 0.228096L36.3733 1.78382L37.5436 5.45654Z" fill="#BF851E"/>
<path d="M33.2852 11.3969L32.6129 12.8179L36.3664 10.0544L36.367 9.12909L33.2852 11.3969Z" fill="#BF851E"/>
<path d="M43.0336 4.89444C42.9599 4.92033 41.8186 5.30546 41.3705 5.45655H41.3709L38.2743 7.72827L39.4535 11.4008C39.8256 11.9205 40.4778 12.8308 40.4825 12.8374C40.5771 12.7691 40.6289 12.6403 40.5802 12.4892C40.5328 12.3413 39.7747 9.9813 39.1434 8.01539C40.8005 6.79972 42.7916 5.33872 42.9144 5.24842C43.0443 5.15321 43.077 5.00965 43.0336 4.89444Z" fill="#BF851E"/>
</svg>
